<svg xmlns="http://www.w3.org/2000/svg" xmlns:xlink="http://www.w3.org/1999/xlink" width="234.377" height="64.441" viewBox="0 0 234.377 64.441">
  <defs>
    <linearGradient id="linear-gradient" x1="0.499" y1="0.36" x2="0.323" y2="1" gradientUnits="objectBoundingBox">
      <stop offset="0" stop-color="#0064e0"/>
      <stop offset="0.058" stop-color="#0067e3"/>
      <stop offset="0.273" stop-color="#0072ec"/>
      <stop offset="0.625" stop-color="#007df6"/>
      <stop offset="1" stop-color="#0081f9"/>
    </linearGradient>
    <linearGradient id="linear-gradient-2" x1="0.723" y1="1.155" x2="-0.015" y2="0.645" xlink:href="#linear-gradient"/>
    <linearGradient id="linear-gradient-3" x1="0.427" y1="-0.978" x2="0.952" y2="-1.929" xlink:href="#linear-gradient"/>
  </defs>
  <g id="Final_Logo_01" transform="translate(0 -3.581)">
    <g id="Group_29" data-name="Group 29" transform="translate(70.096 16.209)">
      <path id="Path_102" data-name="Path 102" d="M40.981,36.744l-2.6,2.6v9.766H32.3V9.4h6.076v23h.217L49.01,21.119h7.379v.217L44.67,32.838,58.342,48.68V48.9H51.18Z" transform="translate(-32.3 -9.4)" fill="#334851"/>
      <path id="Path_103" data-name="Path 103" d="M66.551,17.287h0l.217-2.387h6.076V42.678H66.768V39.423h-.217A10.84,10.84,0,0,1,58.3,42.9c-7.162,0-12.8-6.076-12.8-13.889s5.859-13.889,13.455-13.889A9.182,9.182,0,0,1,66.551,17.287Zm.217,16.059v-11.5a12.414,12.414,0,0,0-7.379-2.17c-4.557,0-8.247,3.906-8.247,8.9s3.689,8.9,8.247,8.9C62.427,37.47,65.248,36.385,66.768,33.346Z" transform="translate(-16.854 -2.964)" fill="#334851"/>
      <path id="Path_104" data-name="Path 104" d="M62.3,35.968a23.649,23.649,0,0,0,7.6,1.519c2.6,0,4.774-.868,4.774-3.255,0-1.736-1.085-2.821-4.991-3.689-4.991-1.085-8.464-3.472-8.464-7.813,0-5.425,4.774-8.03,9.983-8.03a21.988,21.988,0,0,1,8.464,1.953l-1.085,4.774a21.19,21.19,0,0,0-7.162-1.519c-2.17,0-4.34,1.085-4.34,3.038,0,1.3,1.085,2.6,4.774,3.255,5.425,1.085,8.681,3.472,8.681,8.03,0,5.642-4.991,8.464-10.417,8.464A25.224,25.224,0,0,1,61,40.959Z" transform="translate(1.284 -3.198)" fill="#334851"/>
      <path id="Path_105" data-name="Path 105" d="M78.876,40.191V54.3H72.8V14.8h6.076v3.255h.217A10.734,10.734,0,0,1,87.34,14.8c7.162,0,12.8,6.076,12.8,13.889S94.285,42.578,86.689,42.578A11.989,11.989,0,0,1,78.876,40.191Zm0-16.71v12.37a13.973,13.973,0,0,0,7.162,1.736c4.557,0,8.247-3.906,8.247-8.9s-3.689-8.9-8.247-8.9A7.976,7.976,0,0,0,78.876,23.481Z" transform="translate(15.091 -3.081)" fill="#334851"/>
      <path id="Path_106" data-name="Path 106" d="M97.649,48.9c-6.293,0-9.549-3.038-9.549-8.464V9.4h6.076V40c0,2.387,1.519,3.472,4.123,3.689Z" transform="translate(32.995 -9.4)" fill="#334851"/>
      <path id="Path_107" data-name="Path 107" d="M109.123,14.8c8.247,0,14.323,6.076,14.323,13.889s-6.293,13.889-14.323,13.889S94.8,36.5,94.8,28.689,100.876,14.8,109.123,14.8Zm0,22.787a8.577,8.577,0,0,0,8.464-8.9,8.577,8.577,0,0,0-8.464-8.9c-4.774,0-8.247,3.906-8.247,8.9A8.276,8.276,0,0,0,109.123,37.587Z" transform="translate(40.835 -3.081)" fill="#334851"/>
    </g>
    <g id="Group_30" data-name="Group 30" transform="translate(0 3.581)">
      <path id="Path_108" data-name="Path 108" d="M24.345,5.719h0l-.434,1.736h0v.217h0a59.97,59.97,0,0,0-1.3,15.191,58.581,58.581,0,0,0,2.6,14.974,55.6,55.6,0,0,0,6.293,13.672,54.1,54.1,0,0,0,9.332,11.5,2.455,2.455,0,1,1-3.472,3.472h0a62.206,62.206,0,0,1-15.408-28,55.488,55.488,0,0,1-1.736-15.842,63.11,63.11,0,0,1,2.17-15.625h0V6.8h0c0-.217,0-.217.217-.434l.217-.434.217-.868V4.851h0c0-.434.434-.651.868-.651C24.345,5.068,24.562,5.285,24.345,5.719Z" transform="translate(23.615 -2.857)" fill="url(#linear-gradient)"/>
      <path id="Path_109" data-name="Path 109" d="M28.2,32Z" transform="translate(32.998 29.674)" fill="#fff"/>
      <path id="Path_110" data-name="Path 110" d="M.868,45.723h0L2.6,45.289h.217a53.3,53.3,0,0,0,14.106-5.642,50.142,50.142,0,0,0,12.153-8.9A55.078,55.078,0,0,0,38.629,19.03,54.871,54.871,0,0,0,44.705,5.358a2.661,2.661,0,0,1,3.038-1.736A2.661,2.661,0,0,1,49.48,6.66v.217h0A74.6,74.6,0,0,1,42.1,21.2,55.735,55.735,0,0,1,31.25,32.919,66.3,66.3,0,0,1,18.012,41.6,60.763,60.763,0,0,1,3.038,46.591H1.953l-.868.217H.868c-.434,0-.868-.217-.868-.434A3,3,0,0,1,.868,45.723Z" transform="translate(0 -3.581)" fill="url(#linear-gradient-2)"/>
      <path id="Path_111" data-name="Path 111" d="M56.8,41.272a65.871,65.871,0,0,0-9.983-7.379A55.608,55.608,0,0,0,32.93,28.034a56.735,56.735,0,0,0-14.974-2.17A56.063,56.063,0,0,0,3.2,27.6a2.474,2.474,0,0,1-1.3-4.774h.217a65.977,65.977,0,0,1,16.059-1.085A73.78,73.78,0,0,1,33.8,24.779a72.668,72.668,0,0,1,14.323,6.945A38.376,38.376,0,0,1,52.9,35.2,24.363,24.363,0,0,0,56.8,41.272Z" transform="translate(0.056 17.58)" fill="url(#linear-gradient-3)"/>
    </g>
  </g>
</svg>
